<svg width="512" height="512" xmlns="http://www.w3.org/2000/svg">

 <g>
  <title>Layer 1</title>
  <path fill="white" id="svg_1" d="m256,0c-141.36328,0 -256,114.63672 -256,256s114.63672,256 256,256s256,-114.63672 256,-256s-114.63672,-256 -256,-256zm-74.39062,387l-62.34766,0l0,-187.57422l62.34766,0l0,187.57422zm-31.17188,-213.1875l-0.40625,0c-20.92187,0 -34.45312,-14.40234 -34.45312,-32.40234c0,-18.40625 13.94531,-32.41016 35.27343,-32.41016c21.32813,0 34.45313,14.00391 34.85938,32.41016c0,18 -13.53125,32.40234 -35.27344,32.40234zm255.98438,213.1875l-62.33985,0l0,-100.34766c0,-25.21875 -9.02734,-42.41797 -31.58594,-42.41797c-17.22265,0 -27.48046,11.60157 -31.98828,22.80079c-1.64843,4.00781 -2.05078,9.60937 -2.05078,15.21484l0,104.75l-62.34375,0s0.81641,-169.97656 0,-187.57422l62.34375,0l0,26.5586c8.28516,-12.78125 23.10938,-30.96094 56.1875,-30.96094c41.01953,0 71.77735,26.80859 71.77735,84.42187l0,107.55469zm0,0"/>
 </g>
</svg>